<svg xmlns="http://www.w3.org/2000/svg" xmlns:xlink="http://www.w3.org/1999/xlink" viewBox="0 0 195 500"><defs><style>.cls-1{fill:#0c3755;}.cls-2{font-size:12px;fill:#fff;font-family:MyriadPro-Regular, Myriad Pro;}</style></defs><g id="Layer_1" data-name="Layer 1"><image width="195" height="500" xlink:href="usemap.jpg"/></g><g id="Layer_2" data-name="Layer 2"><circle class="cls-1" cx="40.29" cy="147.12" r="7.2"/><circle class="cls-1" cx="41.29" cy="170.01" r="7.2"/><circle class="cls-1" cx="42.29" cy="188.79" r="7.2"/><circle class="cls-1" cx="86.78" cy="194.99" r="7.2"/><circle class="cls-1" cx="41.29" cy="213.48" r="7.2"/><circle class="cls-1" cx="86.78" cy="231.55" r="7.2"/><circle class="cls-1" cx="22.23" cy="257.2" r="7.2"/><circle class="cls-1" cx="42.29" cy="283.37" r="7.2"/><circle class="cls-1" cx="88.78" cy="283.37" r="7.2"/><circle class="cls-1" cx="89.78" cy="318.95" r="7.2"/><circle class="cls-1" cx="41.29" cy="325.15" r="7.2"/><circle class="cls-1" cx="89.78" cy="352.73" r="7.2"/><circle class="cls-1" cx="89.78" cy="367.13" r="7.2"/><circle class="cls-1" cx="120.28" cy="363.11" r="7.2"/><circle class="cls-1" cx="146.47" cy="369.31" r="7.2"/><circle class="cls-1" cx="146.47" cy="392.07" r="7.2"/><circle class="cls-1" cx="42.29" cy="384.87" r="7.2"/><circle class="cls-1" cx="122.97" cy="457.21" r="7.2"/><circle class="cls-1" cx="146.47" cy="471.61" r="7.2"/><circle class="cls-1" cx="177.68" cy="481.64" r="7.2"/><text class="cls-2" transform="translate(38.29 151.32)">J</text><text class="cls-2" transform="translate(40.29 174.5)">I</text><text class="cls-2" transform="translate(38.29 192.57)">H</text><text class="cls-2" transform="translate(83.58 199.08)">P</text><text class="cls-2" transform="translate(82.49 235.22)">O</text><text class="cls-2" transform="translate(37.2 218.28)">G</text><text class="cls-2" transform="translate(84.4 286.88)">N</text><text class="cls-2" transform="translate(19.28 261.64)">T</text><text class="cls-2" transform="translate(39.34 287.88)">F</text><text class="cls-2" transform="translate(84.78 322.89)">M</text><text class="cls-2" transform="translate(38.64 329.23)">E</text><text class="cls-2" transform="translate(86.47 355.91)">L</text><text class="cls-2" transform="translate(86.71 371.6)">K</text><text class="cls-2" transform="translate(115.77 366.13)">Q</text><text class="cls-2" transform="translate(143.65 373.33)">R</text><text class="cls-2" transform="translate(143.56 396.16)">C</text><text class="cls-2" transform="translate(39.34 388.94)">D</text><text class="cls-2" transform="translate(120.28 461.67)">S</text><text class="cls-2" transform="translate(143.56 475.44)">B</text><text class="cls-2" transform="translate(174.01 485.26)">A</text></g></svg>