<svg xmlns="http://www.w3.org/2000/svg" viewBox="0 0 334.51 736.68"><defs><style>.cls-1,.cls-10,.cls-3,.cls-7,.cls-9{fill:none;}.cls-1{stroke:#9c9;}.cls-1,.cls-10{stroke-width:0.75px;}.cls-2{fill:#ccc;}.cls-3{stroke:#ccc;stroke-width:3px;}.cls-4{fill:#146798;stroke-width:0.88px;}.cls-10,.cls-4,.cls-6,.cls-7,.cls-9{stroke:#000;}.cls-5{fill:#fae9ab;}.cls-6{fill:#fab65f;}.cls-6,.cls-7{stroke-width:0.5px;}.cls-8{font-size:12px;font-family:Myriad-Roman, Myriad Roman;}.cls-11{fill:#023859;stroke:#023859;}.cls-12{font-size:9.99px;fill:#fff;font-family:MyriadPro-Regular, Myriad Pro;}</style></defs><title>guodong</title><g id="CONTOUR_LINES" data-name="CONTOUR LINES"><path class="cls-1" d="M350,761c-5.39-3.36-10.36-14.24-12.5-20-2.71-7.31-.12-17,1.51-25,1.74-8.48.71-18.46,2.6-27.38.68-3.18,2.62-8,1.41-11.63-1.26-3.79-4.83-4.73-7.92-6.7-6.39-4.07-14.68-5.82-21-10.4-5.16-3.75-9.69-10.79-13.72-15.76-6-7.33-11.33-5.54-18.24-.49-6,4.35-13.6,9.71-20.78,12.75-12,5-24.07,8.34-36.58,12.5-9,3-18.16,9-26.9,3.86-2.75-1.61-7.95-3-8.89-5.75-1.24-3.65,2.15-5.89,4.39-8.11s4.2-5.78,6.5-7.92c3-2.75,7.33-3.11,11.12-4.34,6.11-2,12-6.39,18-7.12,6.78-.82,12-2.43,18.49-4.1,4.89-1.25,11.71-3.71,15.64-6.76,2.93-2.28,4.44-6.62,6.19-9.79.92-1.66,2.39-1.48,2.7-3.49.35-2.35-1.93-5.55-2.65-7.71-1.25-3.72-1.43-7.19-1.88-11.15-.87-7.62-4.78-11.67-10.39-16.72s-11-10-16.51-14.78c-2.7-2.32-6.1-3.82-9-6.14-6.29-5.07-10.7-8.75-15.35-15.25-2.07-2.89-5.18-5.11-7.9-7.49-5.68-5-8.27-13.1-14.5-17-7-4.4-10.59-9.07-14-16.59-3.31-7.29-6.63-14.6-10.74-21.26-3.29-5.32-7.83-8.92-9.14-15.25" transform="translate(-140.16 -25.81)"/><path class="cls-1" d="M323,760c.16-4.5-.82-7.78-.61-11.5.22-4.14.82-8.21.62-12.5s-.92-8.7-.29-12.89c.49-3.19,2.62-7.75,3.17-11.33.74-4.8.4-7.38,2.34-11.67a38.38,38.38,0,0,0,3.27-10.61c.54-5.17,0-7-3-10.1-2.25-2.32-5-4.82-7.49-7-3.38-2.94-7.11-4.95-10.75-7.25-3.4-2.15-6.47-5.41-10.27-6.64-8.74-2.83-14.34,3.45-21.45,7-8.24,4.13-15.81,7.08-24.53,8.49-5.37.87-11.16,1.46-16.52,2.61-4.43.95-8.5,3.42-13.12,3.9-9.35,1-17.74,4.28-26.86,5.6-4.32.63-8.33.84-12.1-1.49s-5.15-6.22-8.53-9-6.13-3.5-7.63-8.24c-1.4-4.39-.82-6.66,2.14-10,5.67-6.42,12.69-6.67,18.5-12,7.49-6.87,17.5-7.33,26.05-12.9,7.07-4.6,16.08-5.08,23.71-7.38,8.17-2.47,15.53-3.54,16.39-14.11.62-7.77-6.1-14.49-10.71-20A115,115,0,0,0,225.5,572.6c-3.25-2.31-5.46-3.55-7.64-7-1.94-3.08-2.35-6.3-5.09-9-5.53-5.42-13.5-8.17-18.61-13.28s-6.13-13.31-11.61-18.19c-2.61-2.32-4.76-2.73-6.87-6.19-1.84-3-3-6.45-4.8-9.47-1.66-2.69-4-4.62-5.75-7.27s-2.38-7.8-5.13-8.74" transform="translate(-140.16 -25.81)"/><path class="cls-1" d="M312,761.5c-.06-8.66-1.88-16.87-2-25.5-.1-7.62,1.92-15.53,4-22.47,2.4-7.88,6.77-14,4.85-23-1.56-7.25-3.46-7.14-10.41-8.39-4.36-.79-8.44-1.53-13.36-1.11-8.83.75-19.2,5-27.22,7.77-4.25,1.45-8,3-12.49,3.24-4.75.3-9.1-.59-13.39,1.62-16.12,8.3-35.65,19.39-54.9,10.87-6.12-2.71-9.79-6-14.48-11.22-9.49-10.6-17.94-22.16-10.52-36.72,3.38-6.64,10.91-14.87,17.39-18.56,6.77-3.86,15.25-5.66,22.13-9.74,8.05-4.78,17.08-5.89,25.26-9.37,3.8-1.62,6.38-3.56,7.83-7.28,2.4-6.12-2.27-9.6-6.12-14.53-3.09-4-7.16-4.84-11-8.2s-7.77-8.28-11.49-12a48.67,48.67,0,0,1-7.24-9.76c-2.91-5.23-6.58-7.86-11-12.13-6.89-6.7-11.42-17-15.66-25.08-2.18-4.14-5.12-7.69-7.6-11.93-2.77-4.73-6.6-12.35-11.13-15.48" transform="translate(-140.16 -25.81)"/><path class="cls-1" d="M150,520.5c.49,4.54,5,7,7.39,10,3.61,4.56,4.75,8.16,7,13.53,1.71,4.13,4.79,7.42,6.73,11.34,3.49,7,5,7.41,11,12,3.46,2.62,7.39,5,10.51,8s5.57,7,8.47,10.5c5.08,6.11,13.63,11.28,8.22,19s-16.56,8.7-25.49,12.78c-4.7,2.14-7.5,5.06-11.55,7.38-5.3,3-10,4.42-14.17,9.37-3.43,4.07-5.95,10.72-8.18,15.55-1.81,3.92-2.28,8.92-2.48,13-.49,10.65.6,19.27,4.9,28.56,3.35,7.21,5.22,14.45,11.09,20,3.39,3.19,8,3.71,12.54,4.61s6.46,2.26,10.35,4.51c16,9.26,40.91-2,57-5.48,11-2.36,18-8.36,28.79-11.15,7.61-2,22-5.93,29.36-1.49,6.93,4.18,5,14.73,2.61,21.12-2.86,7.64-3.71,18-4.11,26.5-.15,3.23.57,6.94-.5,9.88" transform="translate(-140.16 -25.81)"/><path class="cls-1" d="M256.45,548c-9.8-1.86-19.32-7.3-28.3-13.19-10.31-6.77-14.29-17.45-22.14-26.27-3-3.38-8.76-6.86-12.5-9.64-5.8-4.32-7.19-8.28-10.41-14.95-6-12.35-17-20.71-22.19-33.21-1.82-4.42-3-9.47-6.49-13.21" transform="translate(-140.16 -25.81)"/><path class="cls-1" d="M238.15,529.72c-7.52-3.18-19.86-11.89-24.76-19-3.8-5.51-5.7-11.09-9.54-16.9s-9.69-8.82-13.74-14c-15.31-19.65-16-41.06-23.2-64.79-3.89-12.83-12.31-24.86-18.68-36.65-3.13-5.81-3.65-9.71-4.36-16.8-.43-4.21-.77-14.59-3.52-16.19" transform="translate(-140.16 -25.81)"/><path class="cls-1" d="M179.75,384.07c-1.84-5.42-5.95-10-7.76-15.46-1.94-5.87-2.64-12.21-4.36-18.14-3.57-12.34-9.28-20.89-11.13-33.75-3.94-27.29,7.1-52.55,7.07-79,0-9.87-.86-20.79,1.25-30.26,1-4.45,3.15-7.05,7-10,4-3.11,15.82-4.38,17.19-7.57-2.91-5.49-10.15-5-15.57-5.64-7.12-.81-14-2.93-18.29-9.15" transform="translate(-140.16 -25.81)"/><path class="cls-1" d="M156.53,155.39c5.28,6.81,11.92,17.4,20.55,21.67,8.16,4,25.87.91,34.34,2.25,4.6.73,12.3-1,13.52,4.74,1.28,6.07-7.8,7-12.68,8.24-9.27,2.42-24.34,4.88-32.14,10.79-18.48,14-4.76,45.57-10.2,64.19s-11,51.19.31,69.15c1.93,3.06,4.31,6.17,5.3,9.66" transform="translate(-140.16 -25.81)"/><path class="cls-1" d="M178.34,322.86c-6.15-12.75-3.38-19.89-2-32.92,1.34-12.2,3.36-24.09,3.36-36.59,0-10.77-2.62-25.77.71-35.85,3.76-11.41,21.51-11.06,30.81-15.26,4.19-1.89,8.93-6,13.48-7.5,7.05-2.33,10.68-.71,12-9.11,2.32-15.23-13.63-15.69-24.58-14.06-10.69,1.6-23.59,3.11-33.61-1.56-12.12-5.65-12.25-23.17-13.51-35-1.29-12.09-2.83-24.38-7.07-35.18" transform="translate(-140.16 -25.81)"/><path class="cls-1" d="M198.75,151.17c.52-4.87-1-8.82-1.41-13.37-.56-5.73,1.79-8.17,2.66-12.82,1.93-10.36-3.2-21.89-7.92-29.92-2.58-4.41-7-8.47-9.73-12.83-3.72-6-5.5-13.2-8.37-19.56-2.48-5.51-6.71-10.34-9.39-15.6s-2.43-9.47-2.43-16.22" transform="translate(-140.16 -25.81)"/><path class="cls-1" d="M442.91,580.38c-.09-12.62-1.47-24,.7-35.9S445,520,445,507.75c0-13.61,2.49-28.33-1-41.53s-11.7-21.7-12.37-35a210.8,210.8,0,0,1,1.41-35.88c1.51-12.91-.72-26.43,0-39.4,1.6-29.06-.7-57.92-.7-87.13,0-17.52-2.61-33.91-3.52-50.78-.77-14.09-5.57-24.42-9.53-37.42-1.71-5.62-1.24-10.12-4.65-15.43-3.06-4.77-7.35-8.66-10.64-13.28C397.66,143,395,131.51,389.59,122,378.73,102.79,371,80,375.67,56c1.52-7.69,3.6-18.77,2.51-25.87" transform="translate(-140.16 -25.81)"/><path class="cls-1" d="M433.76,628.23c0-13.33-5.54-22.44-6.33-35.18a151.49,151.49,0,0,1,2.81-38c4.47-23.66,8.77-51,6.34-75.84-.74-7.51-4.66-12-7.1-18.42-2.2-5.8-2-12.05-2.91-18.17-2.43-16-.93-33.19-.51-49.2.52-20.25-1.44-40.47-1.44-60.72,0-24.86-1.47-50.25-3.37-75.13-.92-12-1.62-23.78-1.56-36,.05-10.41-.65-26.75-4.77-36.58-4-9.64-7.51-21.13-13.35-30.58s-11.39-18.06-17.92-27.1c-4.12-5.7-7.9-12-9.93-18.75s-5.59-13.73-7-20.48c-1.13-5.58-.3-11.65-2-17.16,5.65-11.21-1-32.18,2.89-45" transform="translate(-140.16 -25.81)"/><path class="cls-1" d="M411.25,583.9c0-24.26,12.66-41.92,12.66-66.14s-1.76-47-9.09-69c-4-11.92-5-22.14-5-35.85,0-12.86,2.85-23.55,2.81-35.9-.06-24-4.22-47.38-4.22-71.77,0-12.81-.49-25.85,1.43-38,2.68-17.09-2.41-30.93-3-47.49a242.7,242.7,0,0,0-8.27-54.57c-5.63-20.93-28-30.71-32.23-51.63C361,86.57,349.53,56.72,355,28.74" transform="translate(-140.16 -25.81)"/><path class="cls-1" d="M399.29,565.61c-1.38-10.54,7.79-22.19,11.57-30.82,4.14-9.48,4.6-22.14,5.16-33.21.56-11.23,1.37-24.13-1.94-34.48-1.72-5.4-5.88-8.76-7.6-14.07s-2.65-11.54-3.71-16.89c-2.93-14.73-3-26.58-1.41-42.92,1.05-10.74,3.35-21.44,3.33-32.26,0-13.94-4-27.23-6.1-40.92-1.8-11.43-2.13-24.34-2.12-35.88,0-24.48,2.82-45.77,2.82-70.37,0-13.27-2.54-24.91-5-36.55-1.54-7.26-2.14-15.27-5.78-21.88-3.91-7.09-13-12.69-19.31-17.73-5.12-4.13-9-3.43-10.88-10.19-3.05-11-.18-24.14-2.83-35.24C350.59,71.71,338.57,48,350.73,28" transform="translate(-140.16 -25.81)"/><path class="cls-1" d="M405.62,512.84a332.31,332.31,0,0,0,2.11-33.78c0-13-8.52-19.35-11.26-30.8-2.52-10.54-6.9-21.41-6.33-32.52.62-12.17,3.67-23.28,5.47-35.19,2.19-14.46,1.22-31.91,1.56-45.73.19-7.31-3.69-14.28-5.47-21.27-.93-3.68-2.43-7-3-10.39-2-12.38-4.26-32.63-.33-44.51,2-5.92,3.88-8.89,3.85-16,0-5.85-.21-11.75,0-17.59.85-23.7,4.24-50-12.12-68.8-7.65-8.78-15-12.58-24.14-18.64-11.31-7.54-1-18.52-3.11-28.69-1.83-8.8-6.86-18.23-9.16-27.45-4.33-17.33-7.21-32.24-2.84-49.92" transform="translate(-140.16 -25.81)"/><path class="cls-1" d="M390.14,449.51c-8.88-18.4-7.11-44.7-6.34-66.14s15.93-45.3,5.81-66.28c-4.78-9.9-7-22.11-8.65-32.21a90.21,90.21,0,0,1-.67-17.61c.28-7.68,3.42-15.11,3.81-22.85.48-9.57-1.61-19,.41-28.51,2.46-11.62,6.57-19.91,2.85-31.71-5.89-18.67-22.92-36-38.76-46.39-10.32-6.79-2.9-13.94-.84-23.56,1.81-8.45-3.39-21.57-6.88-29.06-4.34-9.31-8.84-16.91-10.51-27.64-1.58-10.11.78-19.31,3.48-28.81" transform="translate(-140.16 -25.81)"/></g><g id="road"><path class="cls-2" d="M360.94,761s-.71-17.37,1.05-22.65,1.41-13.37,1.76-16.54-1.41-3.87,2.82-4.92,8.44-3.52,10.55-3.87,3.52-2.11,1.06-6a10.91,10.91,0,0,1-1.41-8.8c.35-1.41-2.82-6.33-2.46-10.91s-1.76-8.09-6-8.09-7.39,1.06-7.74-4.57,2.11-10.2-4.23-15.13S335.61,642,333.14,638.08s-12-7.74-24.27-48.55-3.6-12.53-3.56-17.35,15.17-29.79,15.17-29.79l11.61-15.48-4.93-7-19,6.33a25.89,25.89,0,0,1-6.34-1.4c-2.46-1.06-6-6-9.14-10.21s-14.87-20.36-18.87-22.31-12.8,7.19-12.8,7.19l5.63,9.49,1.06,2.12,14.42-4.23S293,523.74,294.8,525.5s7.74,11.61,9.49,13.72,4.93,6,4.93,6,2.11.71-.7,3.17S299.72,559.63,298,560s-5.27,6.33-10.9,3.52-21.11-12.67-27.8-19-21.11-23.22-25-27.79-9.85-10.56-11.25-12-2.07-4.24-2.44-5.81-8.82-20.93-10.23-24.09-7-20-9.5-25.68,0-15.13-1.41-21.46-6-28.15-11.61-36.95-3.51-9.85-5.27-14.42-2.47-4.22-2.47-8.79-.7-25.69.71-34.13,4.92-36.24,6.68-42.22,11.26-28.5,24.63-37.64,27.13-20.19,46.81-24.17h0l4.88,12.67,6.82-1.46-4-13.08,11.26-4.22-12.7-22.43s-7,1-5.24-4.66,4.57-12.66,0-26.38-9.15-21.82-10.21-27.09-2.46-8.1,3.87-15.48.36,0,.36,0l60-10,.5-3.76-64.38,9.85s-4.93,2.81-6.34-.36-1.05-5.62.71-10.55-.71-6.68-2.11-9.85-15.84-42.92-20.06-58.4-1.41-9.55-1-13.22h-7.74s4.92,38.2,11.61,60,2.72,5.42,3.47,6,0,11.19,1.45,14,16.54,44.69,17.24,48.2,9.5,20.41,6,31.67-15.83,34.12-21.81,40.1-21.81,15.84-26,19.35-19.34,21.81-24.27,44.33-7,47.14-6.68,64,7.74,38,9.14,44.68S191,439.66,193.47,453s13.37,46.44,31,64.73,29.2,30.26,34.13,33.78,20.76,13.72,32.72,26.73,12,15.48,14.77,25.33S312.39,624,321.18,637c0,0,5.28,4.22,6.69,5.62s4.22,6,9.14,8.1,6,6.68,5.63,11.25,2.47,9.86,3.17,12,9.85,21.46,8.44,32.72-1.05,21.1-.7,22.86a28.93,28.93,0,0,1-.82,16c-2.7,8.61-.59,12,.12,15.43Z" transform="translate(-140.16 -25.81)"/><path class="cls-3" d="M312.6,115.64c1,0,4.08-.56,4.9.23s.1,2.7.11,3.64a23.85,23.85,0,0,0,.34,3.16c.23,1.62.6,4.33,2.53,4.8,1.23.31,2.43-.4,3.56-.63a7.31,7.31,0,0,1,4.1.23c1.63.68,1.28,1.49,1.94,3,.56,1.34,1.52,2.54,2.06,3.94,1,2.6,2,5,2.84,7.75.67,2.28,1.8,4.33,2.59,6.31a27,27,0,0,1,1.08,3.41,7.91,7.91,0,0,0,1.68,2.9,35,35,0,0,1,3.65,8,35.11,35.11,0,0,0,1.21,4c.86,1.63,2,3.06,2.77,4.79a72,72,0,0,1,3.58,8.18c.5,1.69,1.71,3.87.63,5.36-.78,1.06-2,1.88-2.8,3A16.52,16.52,0,0,1,346,191.5a13.92,13.92,0,0,0-2.71,2.25c-.74.87-.91,1.8-1.65,2.58-1,1-2.47,1.64-3.55,2.6-.67.6-1.27,1.36-2,2a31.8,31.8,0,0,0-3.18,2.69c-1.3,1.44-2.13,3.32-3.72,4.71-1.27,1.12-2.74,2.36-4.07,3.41-2.86,2.26-6,4-8.44,6.69a22.45,22.45,0,0,1-4.63,3.65,26.62,26.62,0,0,0-3.92,3.45" transform="translate(-140.16 -25.81)"/><path class="cls-3" d="M300.25,118c2,2.52,1.28,5.78.17,8.54a35.88,35.88,0,0,0-1.84,4.37,13.21,13.21,0,0,0,.1,5.35c.29,1.74,1.34,2.54,2.62,3.82,1.8,1.8,3.63,3.54,5.39,5.38,2.38,2.5,4.53,5.23,7.06,7.73a39.82,39.82,0,0,1,4,4.55,56.2,56.2,0,0,0,4.44,4.57,56.87,56.87,0,0,1,6.42,8.87c1.76,2.73,3.23,4.73,3.89,8,.41,2.08,1.33,5,.83,7.27a13.08,13.08,0,0,1-1.94,4.07c-1,1.2-3.22,2-4.57,2.75a83.28,83.28,0,0,0-8.74,6,52.31,52.31,0,0,1-6.78,4.08,63.44,63.44,0,0,0-7,4.5,38.23,38.23,0,0,1-4.94,3.51c-2.53,1.32-5.06,2.5-7.53,4-1.06.63-1.83,1.53-2.87,2.12a31.85,31.85,0,0,1-4.74,2A31.44,31.44,0,0,0,281,221c-1.13.6-2.9,1-3.71,2" transform="translate(-140.16 -25.81)"/><path class="cls-3" d="M308.92,225c-.67.84-2.24,1.51-3.15,2.21a35.75,35.75,0,0,1-3.36,2.12c-3.73,2.27-7.31,4.66-11.62,5.65a11.46,11.46,0,0,0-3.64,1.42c-.57.44-.78,1-1.35,1.38-1.41,1-3.18,1.19-4.79,1.67a21.17,21.17,0,0,0-4.38,2.08,7.55,7.55,0,0,1-8.84-1.29" transform="translate(-140.16 -25.81)"/><path class="cls-3" d="M265.42,241c-.08,3.08-5,3.91-7.38,4.61a20.77,20.77,0,0,0-2.26.58c-1.2.49-2.44.88-3.64,1.38-2.06.86-4.17,1.58-6.3,2.36s-3.26,2.17-5.25,2.76a52.73,52.73,0,0,0-7.23,2.76c-2.81,1.3-5.16,3.2-8.13,4.2-2.78.94-6,1.4-8.48,3.07s-3.73,4.89-5.31,7.35c-2,3.1-3.18,7-4.46,10.38-1.35,3.52-3.15,6.84-4.11,10.48-.84,3.15-1.47,6.45-2.19,9.61-1,4.38-2.47,8.21-3.72,12.71a65.59,65.59,0,0,0-2.5,17.22V333c0,2.16-.07,4.33-.26,6.48a62.72,62.72,0,0,0,.62,17.82,25.82,25.82,0,0,0,1.78,6.33c.71,1.46,1.77,3,2.48,4.56a21.63,21.63,0,0,0,2.58,4.38c1.27,1.63,2,3.44,3.21,5.12,2,2.93,4.81,5.08,7.23,7.78,1.88,2.1,3.44,4.63,5.22,6.65a75.24,75.24,0,0,1,7.89,9.89c1.43,2.29,3,4.49,4.23,6.89a55.25,55.25,0,0,0,3.43,6.39c.88,1.27,2.26,2.43,3.25,3.79a60.41,60.41,0,0,1,7,11.08c.77,1.75,1.32,3.89,2.33,5.35.75,1.08,1.58,2.15,2.28,3.22,1.44,2.2,3.18,4.41,4.76,6.63a34.06,34.06,0,0,0,5.09,5.53c1.75,1.58,2.5,2.95.29,4.31a24.94,24.94,0,0,0-4,2.75c-2.71,2.45-5.33,4.89-8.46,1.86-1-1-2.1-1.86-3.07-2.84a36,36,0,0,1-2.14-2.92,58.23,58.23,0,0,1-4.36-5.29c-1.07-1.7-2.59-3.11-3.75-4.7-1.34-1.82-1.86-4-2.63-6.05s-.95-4.64-2.2-6.49c-.49-.74-1.33-1.26-1.84-2-.79-1.07-1.38-2.41-2.12-3.54s-1.93-2.38-2.78-3.61c-1.69-2.44-3.51-5.2-5.09-7.81-.86-1.42-1.86-2.58-2.69-3.94-1.55-2.53-2.66-5.15-4.44-7.56-1.95-2.63-4.25-5-6.28-7.56-1.07-1.37-2.16-2.61-3.34-3.87-1-1-1.37-2.51-2.37-3.61a16.26,16.26,0,0,1-3.91-5.79,20.14,20.14,0,0,0-1.94-3.78c-2.19-3.63-3.41-7.72-4.89-11.7-.81-2.15-.84-4.21-2.1-6.17a24.19,24.19,0,0,1-2.61-6.19c-.33-1.16-.34-2.46-.68-3.66-.39-1.39-.89-4.46-2-5.4" transform="translate(-140.16 -25.81)"/><path class="cls-3" d="M274.1,492.54c-1.79-3.47-3.31-6.45-6.14-9.1a21.86,21.86,0,0,1-3-2.7c-.94-1.23-2.13-2.38-3.17-3.57-2.37-2.7-4.5-5.34-7.13-7.87a37.78,37.78,0,0,1-3.6-3.95c-.82-1.06-1.49-2.62-2.49-3.56" transform="translate(-140.16 -25.81)"/><path class="cls-3" d="M278,497.93c-.51-1.5-1.43-2.82-2-4.33s-1.23-3.26-2.89-4" transform="translate(-140.16 -25.81)"/><path class="cls-3" d="M259.12,454.56c.82,0,1.59-.33,2.4-.26,1.23.11,1,.34,1.61,1.3s1.23,1.94,1.81,3c1.62,2.89,3.68,5.34,5.51,8.05a37.42,37.42,0,0,0,6.28,7.39,12.89,12.89,0,0,1,2.52,3.71,14.29,14.29,0,0,0,2.6,3.12,74.81,74.81,0,0,1,5.49,6,11.89,11.89,0,0,0,5.16,3.78c4.46,1.79,7.77,4.71,11.53,7.23a14.26,14.26,0,0,1,2.45,2.52,36,36,0,0,1,2.94,3c.73,1,1.54,1.77,2.29,2.7a16.45,16.45,0,0,0,2.89,2.4c1.58,1.31,2.43,3.32,3.92,4.8a37.92,37.92,0,0,0,7.3,5.32,29.38,29.38,0,0,1,3,2.3,2.56,2.56,0,0,1,.85,3.12" transform="translate(-140.16 -25.81)"/><path class="cls-3" d="M473.19,741.71c-.55-2.94-3.67-6.34-5.38-8.75a103.76,103.76,0,0,0-7.83-9.55,44.92,44.92,0,0,1-5.87-9c-1.6-3-3.69-5.77-5.49-8.68-3-4.84-6.29-9.63-9.68-14.18-2.91-3.9-6.17-7.47-8.85-11.57-2.13-3.25-2.82-7.11-4.92-10.35a26.1,26.1,0,0,1-1.59-2.16c-.32-.64-.45-1.45-.81-2.08-.74-1.29-1.94-2.27-2.71-3.61-.93-1.62-2-3.15-2.81-4.83a17.58,17.58,0,0,0-2-2.75c-1.13-1.59-2.18-3.57-3.29-5.24-.79-1.2-1.59-2.52-2.32-3.7a23,23,0,0,0-2.43-3c-2-2.28-2.55-5.19-4.63-7.38a37.09,37.09,0,0,1-3.51-3.8c-1.18-1.64-1.77-3.56-2.89-5.26-2.42-3.69-4.28-7.68-6.71-11.34a89.48,89.48,0,0,1-4.43-8.28A45,45,0,0,0,382,601c-1.29-1.81-2.43-3.67-3.81-5.42a53.71,53.71,0,0,1-3.79-4.86c-1.17-1.93-2.4-3.73-3.52-5.75a83.7,83.7,0,0,0-11.36-16.6c-3.77-4.1-6.73-9.58-9.69-14.32-3.33-5.33-6.16-11-9.65-16.24-1.1-1.64-2.32-3.13-3.35-4.83s-2.26-2.74-2.86-4.65c-.27-.85-1.12-3.56-2.15-3.81-.77-.18-2.53,1.53-3.54,1.7" transform="translate(-140.16 -25.81)"/><path class="cls-3" d="M465.05,761.15c-1.38-.69-2.31-3.08-3.16-4.36s-1.78-2.6-2.62-3.92c-.71-1.12-1.29-2.42-2.07-3.48-.62-.86-1.5-1.36-2.17-2.16-2.28-2.73-4.94-5-6.54-8-2.85-5.45-6.75-10.42-10-15.67-2.33-3.82-4.43-7.63-6.86-11.41-1.69-2.61-3.29-5.32-5-8-1.6-2.47-3.45-4.82-5.1-7.29-1.87-2.82-4.35-5.08-6.48-7.74-1.08-1.34-1.84-3.08-3.23-4.15s-2.84-1.47-3.86-3.07a21.28,21.28,0,0,1-1.28-2.22c-1.26-2.54-3-4.86-4.44-7.28-2.12-3.53-3.08-7.44-5.15-11-1-1.78-2.31-3.47-3.42-5.22a69.86,69.86,0,0,0-4-6.09,65.33,65.33,0,0,1-7.12-10.1c-1.16-2.22-2.4-4.38-3.49-6.6-.46-.95-.67-1.95-1.11-2.87a19,19,0,0,0-1.32-1.83c-.46-.76-.72-1.6-1.18-2.38-1.84-3.09-4.75-5.78-7-8.86-5-7-9.06-14.3-13.55-21.3a43.23,43.23,0,0,1-2.56-4.23c-.73-1.47-2-2.55-2.69-4a28.45,28.45,0,0,0-2.17-4.35c-2-2.88-4.67-5.24-6.31-8.31a49.48,49.48,0,0,0-3-5.06c-.91-1.31-1.77-2.76-2.77-4-.64-.79-1.5-1.38-2.08-2.23-1.19-1.73-2.55-3.64-3.57-5.4-.69-1.19-1-2.61-1.73-3.74-.6-.93-1.53-1.46-1.93-2.38a2,2,0,0,0,.21-.19,2.8,2.8,0,0,1,1,.51c-1.73-.36-3.64-1-4.51-2.84-.53-1.13-.54-2.63-1.07-3.8-.62-1.39-2.24-2.73-3.29-3.83" transform="translate(-140.16 -25.81)"/></g><g id="river"><path class="cls-4" d="M470.44,743.05s-35.08-48.25-43.37-66.77-21.44-32.16-36.55-58.48-46.79-68.23-49.71-74.08-9.26-17.05-9.26-17.54l-13.16,11.7s53.61,82.84,59.94,90.64,31.68,50.69,34.61,55.56,9.26,8.77,14.62,18.52,37.52,56.86,39,58.4l4.87-18.44" transform="translate(-140.16 -25.81)"/><path class="cls-4" d="M316.93,534l12.18-11.21s-5.36-3.9-6.82-5.36-11.21-10.73-18-18-19-8.28-31.19-26.8-11.7-17.06-11.7-17.06l-10.23,6.34s31.19,34.6,37,42.88,14.14,14.63,19,18.52S316.93,534,316.93,534Z" transform="translate(-140.16 -25.81)"/><path class="cls-4" d="M248.7,459.41l9.75-6.34a18.45,18.45,0,0,1-4.88-4.38c-2.92-3.41-13.64-20-18-28.27s-15.11-19.49-20-25.34-18.52-25.83-20-32.17-5.85-33.14,3.41-62.86,10.72-35.09,22.42-41.92,39.47-14.62,42.4-16.08l-4.88-12.67s-26.8,11.7-32.16,15.59-25.83,15.11-32.65,34.61-11.7,53.61-12.19,62.87,5.36,33.62,14.14,42.4,30.7,44.35,34.11,50.68S243.34,460.87,248.7,459.41Z" transform="translate(-140.16 -25.81)"/><path class="cls-4" d="M270.63,240.59l-5.36-12.67s5.36-1.46,11.21-3.41,36.06-18,44.35-23.88,22.9-12.19,10.72-29.73-21-23.88-22.91-27.78-7.79-7.31-5.84-13.65,1-9.26.48-10.23L314,117.29s1.47,8.28,4.88,10.23,6.33,0,9.75,5.85,15.1,32.65,16.57,36.55,11.2,10.72-3.9,23.88S318.39,217.68,303.77,226,280.38,240.59,270.63,240.59Z" transform="translate(-140.16 -25.81)"/><path class="cls-4" d="M312.54,113.39l-11.69,2a73.34,73.34,0,0,0-2.93-21.93C294.51,82.2,285.74,34.87,284.76,31h16.09s2.92,39,5.84,49.74S312.54,113.39,312.54,113.39Z" transform="translate(-140.16 -25.81)"/><path class="cls-4" d="M295.49,120.21l-41.43,5.85s-1,1.46,0,5.85,7.8,25.34,9.26,28.27,1.95,18.52,10.72,16.57,6.34.48,13.65,3.41,5.85,5.84,10.23,1,7.31-9.26,5.85-12.18-8.28-11.7-9.26-14.62-6.82-9.26-2.92-16.57l3.9-7.31Z" transform="translate(-140.16 -25.81)"/></g><g id="COURTYARD"><path class="cls-5" d="M379.5,248.61l-46,3.52L332.73,230,330,217.88l10.76-6.65-.19-10.18,19-19,2-7.44,6.65-.39s.59,17.42,2,18.4,1.57,2,1,3.52,1,3.52.78,5.28.78,4.31,1.18,6.27a31.57,31.57,0,0,1,1.17,7.83c0,3.71-.2,3.13.59,5.08a19.8,19.8,0,0,1,1.37,7.64c-.2,2.35-.59,6.26.59,8.41S379.11,248.22,379.5,248.61Z" transform="translate(-140.16 -25.81)"/><polygon class="cls-5" points="268.97 510.24 244.76 473.46 237.31 471.54 229.57 457.47 233.38 452.83 248.57 444.81 259.12 461.69 263.35 474.36 271.08 504.61 268.97 510.24"/><polygon class="cls-5" points="310.49 672.78 280.94 631.27 257.72 597.49 242.24 570.05 226.05 543.31 259.12 520.09 263.35 522.2 254.9 539.09 271.79 566.53 290.79 601.01 310.49 672.78"/></g><g id="buildings"><polygon class="cls-6" points="280.09 713.82 266.93 722.11 261.57 713.82 274.24 705.05 280.09 713.82"/><polygon class="cls-6" points="272.78 700.18 257.67 707 254.75 699.2 268.88 691.89 272.78 700.18"/><polygon class="cls-6" points="268.88 691.89 253.28 696.77 249.38 686.53 264.98 681.17 268.88 691.89"/><polygon class="cls-6" points="259.13 667.52 245.49 671.91 242.56 663.14 255.72 658.75 259.13 667.52"/><polygon class="cls-6" points="238.18 639.75 225.5 644.62 221.6 637.31 235.74 631.46 238.18 639.75"/><polygon class="cls-6" points="229.89 627.56 219.66 630.97 213.81 620.74 225.5 615.38 229.89 627.56"/><polygon class="cls-6" points="244.02 620.25 233.79 625.61 228.43 613.92 239.64 610.02 244.02 620.25"/><polygon class="cls-6" points="223.55 610.99 212.34 615.38 207.96 606.61 219.17 600.76 223.55 610.99"/><polygon class="cls-6" points="216.24 596.37 207.47 600.27 204.06 592.47 212.83 588.57 216.24 596.37"/><polygon class="cls-6" points="204.24 727.37 195.47 731.27 192.06 723.47 200.83 719.57 204.24 727.37"/><polygon class="cls-6" points="201.62 603.19 191.39 607.09 187.49 599.78 197.72 594.91 201.62 603.19"/><polygon class="cls-6" points="223.55 535.45 219.17 530.09 231.35 520.35 236.22 526.68 223.55 535.45"/><polygon class="cls-6" points="244.51 521.81 238.18 526.19 233.3 519.86 238.66 515.47 244.51 521.81"/><polygon class="cls-6" points="250.36 516.93 245 511.08 260.11 499.88 264 505.24 250.36 516.93"/><polygon class="cls-6" points="246.46 505.24 230.38 516.45 225.99 510.6 240.12 499.39 246.46 505.24"/><polygon class="cls-6" points="248.41 502.8 244.02 496.95 255.23 489.15 259.13 495 248.41 502.8"/><polygon class="cls-6" points="226.97 520.83 216.73 527.17 212.34 520.35 222.58 514.01 226.97 520.83"/><polygon class="cls-6" points="240.61 493.05 235.74 485.26 246.95 477.94 251.82 484.28 240.61 493.05"/><polygon class="cls-6" points="235.74 485.26 234.09 481.52 244.76 473.46 246.95 477.94 235.74 485.26"/><polygon class="cls-6" points="238.83 494.8 225.55 504.28 223.66 500.96 236.7 491.71 238.83 494.8"/><polygon class="cls-6" points="236.22 491 223.66 500.96 218.44 493.61 230.53 484.13 236.22 491"/><polygon class="cls-6" points="225.55 504.28 222.47 506.65 214.65 496.93 217.97 494.32 225.55 504.28"/><polygon class="cls-6" points="220.1 510.68 209.43 517.08 202.79 505.94 209.19 501.67 211.57 505.7 215.6 503.57 220.1 510.68"/><polygon class="cls-6" points="209.43 497.64 201.37 503.81 196.87 498.35 204.93 491.48 209.43 497.64"/><polygon class="cls-6" points="199.95 492.9 196.87 495.74 194.02 491.48 196.87 488.63 199.95 492.9"/><polygon class="cls-6" points="200.66 490.77 194.97 483.89 197.58 481.99 203.27 488.63 200.66 490.77"/><polygon class="cls-6" points="212.04 497.17 198.53 480.33 202.79 476.3 215.83 492.66 212.04 497.17"/><polygon class="cls-6" points="217.97 489.82 211.57 481.99 217.25 477.01 223.42 485.07 217.97 489.82"/><polygon class="cls-6" points="226.74 478.67 234.33 472.51 230.06 467.06 222.95 472.74 226.74 478.67"/><polygon class="cls-6" points="211.57 481.99 230.06 467.06 223.66 459.23 205.64 473.93 211.57 481.99"/><polygon class="cls-6" points="199.24 473.93 204.69 470.85 201.84 466.34 196.63 469.66 199.24 473.93"/><polygon class="cls-6" points="192.83 472.98 192.54 473.21 182.16 481.28 177.19 474.64 186.67 465.63 192.83 472.98"/><polygon class="cls-6" points="195.44 463.5 193.78 458.99 197.81 456.86 199.24 461.13 195.44 463.5"/><polygon class="cls-6" points="202.79 464.45 199.71 455.44 213.22 450.22 216.31 458.76 202.79 464.45"/><polygon class="cls-6" points="225.32 450.46 216.54 452.35 213.94 443.82 218.91 442.16 219.39 446.43 223.42 445.24 225.32 450.46"/><polygon class="cls-6" points="226.74 447.38 231.01 446.19 228.87 439.55 224.13 440.5 226.74 447.38"/><polygon class="cls-6" points="212.99 443.82 228.87 438.6 224.61 424.85 208.01 428.64 212.99 443.82"/><polygon class="cls-6" points="212.99 445.48 198.29 450.93 194.02 435.99 208.25 430.78 212.99 445.48"/><polygon class="cls-6" points="198.29 450.93 191.41 453.3 187.62 440.26 194.26 437.89 198.29 450.93"/><polygon class="cls-6" points="188.09 448.09 181.93 451.88 178.84 446.9 184.77 442.87 188.09 448.09"/><polygon class="cls-6" points="184.77 463.02 179.32 455.44 167.7 465.39 173.15 472.51 184.77 463.02"/><polygon class="cls-6" points="177.9 453.54 162.48 464.68 159.4 459.7 175.05 448.8 177.9 453.54"/><polygon class="cls-6" points="172.44 450.46 167.46 442.63 154.9 451.88 159.4 459.7 172.44 450.46"/><polygon class="cls-6" points="165.33 440.97 159.4 432.67 147.07 442.63 153.71 450.46 165.33 440.97"/><polygon class="cls-6" points="135.93 446.19 131.66 440.26 137.82 434.33 143.04 440.26 135.93 446.19"/><polygon class="cls-6" points="238.83 446.43 234.33 448.09 229.11 431.73 234.09 430.06 238.83 446.43"/><polygon class="cls-6" points="255.67 448.8 259.22 447.14 256.85 440.97 252.35 442.63 255.67 448.8"/><polygon class="cls-6" points="259.22 447.14 271.32 440.97 267.76 433.86 256.14 439.55 259.22 447.14"/><polygon class="cls-6" points="253.53 440.5 250.21 441.92 247.84 434.1 251.16 433.15 253.53 440.5"/><polygon class="cls-6" points="250.21 441.92 240.49 444.53 238.36 437.65 247.6 434.57 250.21 441.92"/><polygon class="cls-6" points="255.67 436.23 263.49 433.86 261.83 428.64 254.01 430.3 255.67 436.23"/><polygon class="cls-6" points="253.06 430.54 238.12 435.05 235.75 428.41 251.64 423.43 253.06 430.54"/><polygon class="cls-6" points="231.96 424.61 227.45 425.8 225.79 420.82 231.01 419.63 231.96 424.61"/><polygon class="cls-6" points="238.36 409.44 224.84 413.23 221.76 400.66 235.28 396.87 238.36 409.44"/><polygon class="cls-6" points="223.18 422.71 216.54 424.38 213.46 405.88 220.81 404.46 223.18 422.71"/><polygon class="cls-6" points="220.81 404.46 213.94 405.64 211.8 388.1 218.68 386.91 220.81 404.46"/><polygon class="cls-6" points="214.65 426.51 194.49 430.3 192.12 416.79 212.99 412.76 214.65 426.51"/><polygon class="cls-6" points="209.43 413.7 192.12 416.79 190.7 410.15 208.96 405.88 209.43 413.7"/><polygon class="cls-6" points="209.67 400.19 199.24 400.9 198.76 393.08 209.19 392.84 209.67 400.19"/><polygon class="cls-6" points="199.24 400.9 191.65 401.14 190.46 393.55 198.76 393.08 199.24 400.9"/><polygon class="cls-6" points="208.25 387.39 192.36 388.57 191.41 379.09 207.53 378.14 208.25 387.39"/><polygon class="cls-6" points="218.68 382.41 214.88 382.64 214.41 377.19 218.44 377.67 218.68 382.41"/><polygon class="cls-6" points="228.4 379.32 221.05 380.04 219.86 372.45 227.45 371.74 228.4 379.32"/><polygon class="cls-6" points="190.46 432.91 188.09 415.6 163.43 420.58 166.04 437.42 190.46 432.91"/><polygon class="cls-6" points="188.8 414.42 180.98 414.65 180.5 406.59 188.57 406.12 188.8 414.42"/><polygon class="cls-6" points="180.5 411.81 175.76 412.05 175.05 406.59 180.5 406.59 180.5 411.81"/><polygon class="cls-6" points="169.36 407.07 170.07 416.31 160.59 416.55 159.88 407.54 169.36 407.07"/><polygon class="cls-6" points="169.36 407.07 168.89 400.43 159.4 401.14 159.88 407.54 169.36 407.07"/><polygon class="cls-6" points="169.36 407.07 188.57 406.12 187.85 395.92 168.89 397.35 169.36 407.07"/><polygon class="cls-6" points="167.46 397.11 188.57 395.69 187.38 377.67 166.28 378.85 167.46 397.11"/><polygon class="cls-6" points="167.7 398.06 164.14 398.29 163.67 393.08 167.46 393.08 167.7 398.06"/><polygon class="cls-6" points="166.99 387.62 157.27 387.86 157.03 380.51 166.28 378.85 166.99 387.62"/><polygon class="cls-6" points="156.08 427.93 148.5 419.16 136.16 429.35 143.51 438.36 156.08 427.93"/><polygon class="cls-6" points="157.74 416.79 153.24 421.06 143.51 408.73 148.5 404.46 149.68 405.41 154.42 402.09 157.74 416.79"/><polygon class="cls-6" points="148.5 419.16 143.51 412.05 136.4 417.97 141.86 424.38 148.5 419.16"/><polygon class="cls-6" points="141.86 424.38 134.98 430.06 129.53 422.95 136.4 417.97 141.86 424.38"/><polygon class="cls-6" points="132.37 434.1 126.92 426.04 123.12 428.88 128.1 436.94 132.37 434.1"/><polygon class="cls-6" points="119.09 425.56 115.3 419.16 126.44 411.33 130.47 418.68 119.09 425.56"/><polygon class="cls-6" points="129.76 417.02 134.74 414.42 132.37 410.15 127.63 412.99 129.76 417.02"/><polygon class="cls-6" points="135.22 412.28 137.82 410.62 135.22 406.36 132.37 408.25 135.22 412.28"/><polygon class="cls-6" points="112.69 412.99 108.9 405.64 121.94 399.72 124.78 406.36 112.69 412.99"/><polygon class="cls-6" points="130 409.44 121.46 398.77 127.87 394.26 135.93 404.93 130 409.44"/><polygon class="cls-6" points="105.81 403.75 101.55 397.58 111.27 389.99 116.01 396.16 105.81 403.75"/><polygon class="cls-6" points="120.75 394.97 125.02 391.89 120.04 385.49 115.77 388.81 120.75 394.97"/><polygon class="cls-6" points="113.4 388.81 118.62 384.07 113.64 379.8 108.66 384.54 113.4 388.81"/><polygon class="cls-6" points="108.66 384.54 102.26 390.47 96.09 382.88 102.26 376.95 108.66 384.54"/><polygon class="cls-6" points="108.66 384.54 113.64 379.8 107 371.98 102.26 376.95 108.66 384.54"/><polygon class="cls-6" points="101.55 373.4 97.52 368.42 101.31 365.81 104.87 370.79 101.55 373.4"/><polygon class="cls-6" points="157.27 399.48 140.67 403.04 137.82 391.18 154.42 387.39 157.27 399.48"/><polygon class="cls-6" points="154.42 387.39 152.29 380.51 137.11 385.73 137.82 390.7 154.42 387.39"/><polygon class="cls-6" points="135.69 392.6 133.08 389.99 137.11 385.73 139.49 389.05 135.69 392.6"/><polygon class="cls-6" points="130.95 385.96 130.71 383.83 125.02 384.3 125.5 386.2 130.95 385.96"/><polygon class="cls-6" points="230.53 368.89 217.97 370.31 217.02 360.59 229.82 358.7 230.53 368.89"/><polygon class="cls-6" points="213.94 367 206.82 367 206.59 358.46 214.41 358.22 213.94 367"/><polygon class="cls-6" points="205.87 374.11 201.37 374.58 199.95 357.04 204.93 356.56 205.87 374.11"/><polygon class="cls-6" points="200.9 373.4 179.32 374.82 177.66 355.61 199.24 353.48 200.9 373.4"/><polygon class="cls-6" points="203.74 354.19 199.71 354.19 199.24 350.87 203.27 350.63 203.74 354.19"/><polygon class="cls-6" points="207.06 350.16 199.24 350.87 198.76 344.47 207.06 343.52 207.06 350.16"/><polygon class="cls-6" points="199.24 353.48 178.13 355.14 176.71 347.79 189.51 345.89 189.75 344.71 198.76 344.47 199.24 353.48"/><polygon class="cls-6" points="199.47 432.2 193.54 434.57 192.36 428.41 198.05 426.98 199.47 432.2"/><polygon class="cls-6" points="188.33 433.62 189.04 436.7 185.01 437.18 185.01 439.08 170.31 441.68 166.04 437.42 188.33 433.62"/><polygon class="cls-6" points="231.01 457.81 235.04 456.62 233.38 452.83 229.59 454.01 231.01 457.81"/><polygon class="cls-6" points="166.28 378.85 176.71 378.14 175.53 366.28 159.88 367.94 160.82 377.9 166.28 376.95 166.28 378.85"/><polygon class="cls-6" points="160.82 377.9 143.04 379.8 140.43 360.12 158.93 358.22 160.82 377.9"/><polygon class="cls-6" points="136.64 380.75 121.94 382.64 116.96 376.01 136.64 373.63 136.64 380.75"/><polyline class="cls-6" points="136.64 373.63 126.44 374.58 125.26 361.54 140.43 360.12 141.15 367.23 136.16 367.94 136.88 373.16"/><polygon class="cls-6" points="125.26 368.18 116.96 376.01 112.69 371.5 121.23 362.96 125.26 368.18"/><polygon class="cls-6" points="121.23 362.96 117.91 357.99 108.66 366.76 112.69 371.5 121.23 362.96"/><polygon class="cls-6" points="106.76 360.59 103.21 360.36 102.26 356.32 106.53 355.38 106.76 360.59"/><polygon class="cls-6" points="102.26 356.32 99.89 356.32 98.23 346.84 104.63 345.65 106.53 355.38 102.26 356.32"/><polygon class="cls-6" points="99.41 364.15 85.19 371.5 82.58 366.05 96.81 357.75 99.41 364.15"/><polygon class="cls-6" points="96.81 357.75 91.11 346.6 76.41 354.19 82.58 366.05 96.81 357.75"/><polygon class="cls-6" points="91.11 346.6 88.03 341.39 73.09 347.79 76.41 354.19 91.11 346.6"/><polygon class="cls-6" points="88.03 341.39 83.29 331.67 68.35 339.25 73.09 347.79 88.03 341.39"/><polygon class="cls-6" points="101.55 343.52 93.96 346.37 92.06 342.34 99.89 339.25 101.55 343.52"/><polygon class="cls-6" points="103.44 336.88 91.83 341.39 88.75 334.99 101.07 330.24 103.44 336.88"/><polygon class="cls-6" points="98.94 331.19 94.91 317.91 83.53 321.47 88.03 334.51 98.94 331.19"/><polygon class="cls-6" points="96.33 322.42 102.5 320.29 100.6 315.54 94.91 317.91 96.33 322.42"/><polygon class="cls-6" points="100.6 315.54 83.53 321.47 81.87 314.83 87.08 313.41 86.85 311.99 98.7 308.9 100.6 315.54"/><polygon class="cls-6" points="107.95 355.38 107.48 350.63 113.88 350.16 114.11 354.67 107.95 355.38"/><polygon class="cls-6" points="114.83 357.04 113.88 350.16 120.04 349.21 120.52 354.67 114.83 357.04"/><polygon class="cls-6" points="116.25 349.45 125.02 348.26 124.31 335.7 114.83 336.64 116.25 349.45"/><polygon class="cls-6" points="123.36 335.7 112.22 337.12 110.08 319.57 122.41 318.63 123.36 335.7"/><polygon class="cls-6" points="110.8 325.5 104.63 325.98 103.44 307.72 112.45 306.3 114.35 319.1 110.8 319.57 110.8 325.5"/><polygon class="cls-6" points="83.29 330.48 78.79 331.9 77.13 327.64 81.63 325.98 83.29 330.48"/><polygon class="cls-6" points="76.65 332.85 67.17 336.41 65.03 331.9 68.83 330.01 69.78 331.19 75.47 329.3 76.65 332.85"/><polygon class="cls-6" points="67.41 337.12 61.71 339.02 59.11 333.8 65.03 331.9 67.41 337.12"/><polygon class="cls-6" points="80.45 323.6 63.61 328.82 60.77 321.94 61.24 320.29 58.63 312.7 75.7 306.77 80.45 320.76 80.45 323.6"/><polygon class="cls-6" points="79.97 312.22 77.13 301.08 103.21 295.63 104.39 304.4 92.78 307.24 92.54 308.9 88.27 309.38 87.32 310.56 79.97 312.22"/><polygon class="cls-6" points="68.35 306.3 62.19 306.3 62.19 299.66 68.59 299.89 68.35 306.3"/><polygon class="cls-6" points="61 309.85 57.45 309.85 57.21 307.01 61.24 307.48 61 309.85"/><polygon class="cls-6" points="72.62 297.52 64.8 297.05 64.8 282.11 73.57 282.58 72.62 297.52"/><polygon class="cls-6" points="94.2 296.1 82.11 298 79.26 287.33 92.3 284.96 94.2 296.1"/><polygon class="cls-6" points="106.05 305.35 105.11 296.1 118.86 294.68 119.81 303.69 106.05 305.35"/><polygon class="cls-6" points="119.81 303.69 149.92 300.84 148.5 290.88 119.09 293.25 119.81 303.69"/><polygon class="cls-6" points="228.64 357.04 222 357.75 221.05 350.4 227.45 349.69 228.64 357.04"/><polygon class="cls-6" points="227.45 349.69 216.54 350.63 215.36 343.05 226.74 341.63 227.45 349.69"/><polygon class="cls-6" points="227.21 338.54 219.39 339.49 217.97 326.21 225.08 325.5 225.56 328.35 227.21 328.35 227.45 332.38 226.74 332.85 227.21 338.54"/><polygon class="cls-6" points="229.11 332.14 234.8 332.14 234.33 326.92 228.87 326.92 229.11 332.14"/><polygon class="cls-6" points="240.97 333.33 235.51 333.33 235.04 328.35 240.73 327.64 240.97 333.33"/><polygon class="cls-6" points="217.49 334.51 211.33 334.75 210.38 326.21 216.78 325.26 217.49 334.51"/><polygon class="cls-6" points="219.39 339.49 215.83 339.49 215.36 335.7 218.91 335.22 219.39 339.49"/><polygon class="cls-6" points="207.3 341.86 202.32 342.1 201.37 333.09 205.87 332.85 207.3 341.86"/><polygon class="cls-6" points="200.42 342.1 194.49 343.05 193.78 331.9 199 331.43 200.42 342.1"/><polygon class="cls-6" points="179.32 345.18 171.73 345.65 170.31 333.33 178.13 333.09 179.32 345.18"/><polygon class="cls-6" points="168.89 346.13 159.4 347.08 154.9 314.6 165.57 313.64 168.89 346.13"/><polygon class="cls-6" points="173.63 348.74 158.22 350.63 158.93 358.22 174.81 355.85 173.63 348.74"/><polygon class="cls-6" points="174.81 355.85 164.14 357.75 164.86 367.47 175.53 366.28 174.81 355.85"/><polygon class="cls-6" points="164.14 357.75 158.93 358.22 160.11 367.71 164.86 367.47 164.14 357.75"/><polygon class="cls-6" points="158.93 358.22 146.36 359.41 145.18 352.06 158.22 350.63 158.93 358.22"/><polygon class="cls-6" points="146.36 359.41 134.51 360.59 133.79 353.48 145.18 352.06 146.36 359.41"/><polygon class="cls-6" points="134.51 360.59 125.26 361.54 124.07 354.43 133.79 353.48 134.51 360.59"/><polygon class="cls-6" points="135.69 349.92 128.34 350.63 126.68 336.64 133.79 335.7 135.69 349.92"/><polygon class="cls-6" points="135.69 349.92 157.27 348.26 155.13 333.8 133.79 335.7 135.69 349.92"/><polygon class="cls-6" points="133.79 335.7 126.68 336.64 125.02 329.3 133.08 328.11 133.79 335.7"/><polygon class="cls-6" points="147.31 334.27 146.6 326.45 154.19 325.74 155.13 333.8 147.31 334.27"/><polygon class="cls-6" points="141.15 324.79 134.03 326.21 133.32 318.15 140.2 317.2 141.15 324.79"/><polygon class="cls-6" points="143.52 325.03 153.47 323.84 152.29 316.02 142.8 316.73 143.52 325.03"/><polygon class="cls-6" points="132.61 326.21 125.02 327.4 123.12 306.06 129.76 304.87 132.61 326.21"/><polygon class="cls-6" points="135.69 311.04 132.61 311.27 131.9 304.87 134.98 304.64 135.69 311.04"/><polygon class="cls-6" points="138.3 314.6 136.64 303.45 150.63 302.26 152.29 313.17 138.3 314.6"/><polygon class="cls-6" points="163.43 313.41 154.9 314.6 152.05 294.44 157.98 293.25 158.69 294.68 161.3 294.68 163.43 313.41"/><polygon class="cls-6" points="163.43 313.41 185.25 311.75 183.59 292.07 161.3 294.68 163.43 313.41"/><polygon class="cls-6" points="166.51 323.37 186.67 321.71 185.72 311.75 165.8 313.41 166.51 323.37"/><polygon class="cls-6" points="167.7 331.9 166.51 323.37 186.67 321.71 187.14 329.53 167.7 331.9"/><polygon class="cls-6" points="187.14 329.53 198.29 328.58 197.58 312.22 192.6 312.93 192.6 311.51 185.72 311.75 187.14 329.53"/><polygon class="cls-6" points="185.72 311.75 197.1 310.56 195.68 299.18 184.77 299.89 185.72 311.75"/><polygon class="cls-6" points="184.77 299.89 195.68 299.18 194.97 291.12 183.59 292.07 184.77 299.89"/><polygon class="cls-6" points="245.47 325.03 239.31 325.26 238.83 319.81 245.47 319.1 245.47 325.03"/><polygon class="cls-6" points="172.8 508.15 168.3 511.08 163.21 502.47 167.71 499.54 172.8 508.15"/><path class="cls-6" d="M279.3,505l-13.51,4.5s-3.13-6.46-2.54-6.46,13.11-4.89,13.11-4.89Z" transform="translate(-140.16 -25.81)"/><polygon class="cls-6" points="125.63 483.68 116.04 487.4 111.94 478.01 122.11 473.9 125.63 483.68"/><polygon class="cls-6" points="122.7 473.7 108.8 478.79 104.3 465.48 117.81 460.2 122.7 473.7"/><polygon class="cls-6" points="122.7 473.7 131.9 470.18 127.2 458.05 118.59 461.37 122.7 473.7"/><polygon class="cls-6" points="134.83 469.98 131.9 470.18 131.12 467.44 133.66 466.46 134.83 469.98"/><polygon class="cls-6" points="117.22 458.44 96.47 466.66 93.54 460.39 109 454.33 109.59 455.11 115.46 452.56 117.22 458.44"/><polygon class="cls-6" points="112.33 448.06 107.83 449.82 105.28 443.17 110.37 441.41 112.33 448.06"/><polygon class="cls-6" points="109 454.33 92.95 460.2 87.47 445.52 103.71 438.87 109 454.33"/><polygon class="cls-6" points="92.95 475.07 88.25 474.68 88.45 469.2 92.75 469 92.95 475.07"/><polygon class="cls-6" points="96.47 493.47 83.75 479.77 88.25 474.68 101.56 488.18 96.47 493.47"/><polygon class="cls-6" points="85.51 471.35 80.42 473.12 76.31 460.79 81.21 458.83 85.51 471.35"/><polygon class="cls-6" points="83.95 465.87 93.54 462.15 90.99 455.5 81.21 458.83 83.95 465.87"/><polygon class="cls-6" points="82.38 455.31 89.04 452.96 86.69 446.3 79.64 448.65 82.38 455.31"/><polygon class="cls-6" points="77.29 448.26 72.6 434.95 87.67 429.67 91.38 441.41 85.12 443.95 85.32 445.32 77.29 448.26"/><polygon class="cls-6" points="90.02 437.49 97.26 434.36 94.91 426.93 87.67 429.67 90.02 437.49"/><polygon class="cls-6" points="103.71 437.49 99.61 438.08 98.43 431.82 102.15 431.43 103.71 436.91 103.71 437.49"/><polygon class="cls-6" points="87.28 421.06 71.81 426.54 68.68 418.12 84.93 412.83 87.28 421.06"/><polygon class="cls-6" points="69.27 427.9 63.4 429.67 59.48 419.49 65.94 417.34 69.27 427.9"/><polygon class="cls-6" points="65.16 412.83 61.05 406.38 73.18 398.55 76.9 405.2 65.16 412.83"/><polygon class="cls-6" points="50.87 416.55 38.54 418.9 36.58 409.12 49.31 407.35 50.87 416.55"/><polygon class="cls-6" points="48.52 403.24 35.61 405.2 34.63 396.98 47.94 394.83 48.52 403.24"/><polygon class="cls-6" points="62.22 400.7 57.72 393.46 71.42 385.63 75.34 392.68 62.22 400.7"/><polygon class="cls-6" points="34.04 382.11 21.71 387.59 17.21 378.98 30.52 373.3 34.04 382.11"/><polygon class="cls-6" points="26.8 398.35 13.88 401.48 11.14 393.85 24.84 390.13 26.8 398.35"/><polygon class="cls-6" points="237.78 324.96 226.82 326.33 223.69 297.56 234.45 296.19 237.78 324.96"/><polygon class="cls-6" points="226.43 322.22 211.16 324.37 209.2 310.87 224.86 309.11 226.43 322.22"/><polygon class="cls-6" points="210.97 323.79 200.59 325.74 198.64 312.04 209.2 310.87 210.97 323.79"/><polygon class="cls-6" points="209.2 310.87 207.83 299.32 223.69 297.56 224.86 309.11 209.2 310.87"/><polygon class="cls-6" points="209.2 310.87 198.64 312.04 197.26 300.5 207.83 299.32 209.2 310.87"/><polygon class="cls-6" points="201.38 298.54 200 287.97 226.82 284.64 227.6 295.02 201.38 298.54"/><polygon class="cls-6" points="178.48 290.71 154.8 291.69 154.21 279.75 178.09 278.97 178.48 290.71"/><polygon class="cls-6" points="194.92 285.82 193.74 280.53 211.55 278.97 211.94 283.66 194.92 285.82"/><polygon class="cls-6" points="229.17 288.95 240.91 287.19 240.52 281.9 228.78 282.88 229.17 288.95"/><polygon class="cls-6" points="234.45 296.19 229.95 296.58 229.17 290.51 233.67 289.93 234.45 296.19"/><polygon class="cls-6" points="249.72 306.76 246 306.95 245.02 299.91 248.74 299.71 249.72 306.76"/><polygon class="cls-6" points="250.5 317.52 244.82 317.91 244.24 312.24 250.3 312.24 250.5 317.52"/><polygon class="cls-6" points="241.69 317.72 237.19 318.5 236.6 313.22 241.3 313.22 241.69 317.72"/><polygon class="cls-6" points="243.65 310.48 238.37 310.87 236.41 295.99 241.89 295.41 243.65 310.48"/><polygon class="cls-6" points="241.89 295.41 236.41 295.99 235.82 289.54 241.5 289.54 241.89 295.41"/><polygon class="cls-6" points="228.78 282.88 224.66 282.88 224.08 276.03 228.78 275.44 228.78 282.88"/><polygon class="cls-6" points="206.66 262.72 193.94 263.5 193.74 258.81 206.07 258.02 206.66 262.72"/><polygon class="cls-6" points="224.66 282.88 212.34 284.25 211.55 277.01 224.08 276.03 224.66 282.88"/><polygon class="cls-6" points="211.55 277.01 228.78 275.44 228.38 268.79 208.42 270.36 209.2 274.27 211.55 274.27 211.55 277.01"/><polygon class="cls-6" points="208.62 269.77 207.44 254.11 228.58 252.74 229.56 268.2 208.62 269.77"/><polygon class="cls-6" points="193.55 266.83 180.44 268.01 179.65 262.33 192.96 261.16 193.55 266.83"/><polygon class="cls-6" points="186.89 267.81 180.44 268.01 180.83 273.1 187.48 272.7 186.89 267.81"/><polygon class="cls-6" points="186.11 259 179.06 259.39 178.28 250.78 185.52 250.39 186.11 259"/><polygon class="cls-6" points="190.03 256.65 189.44 250.2 205.68 249.22 206.07 256.07 190.03 256.65"/><polygon class="cls-6" points="186.31 248.04 177.69 248.44 177.11 238.26 185.33 237.67 186.31 248.04"/><polygon class="cls-6" points="189.24 247.85 188.26 239.82 204.31 238.65 204.9 246.28 189.24 247.85"/><polygon class="cls-6" points="208.03 253.91 206.07 234.93 226.62 233.37 228.58 252.74 208.03 253.91"/><polygon class="cls-6" points="233.28 241 227.41 241.19 226.82 233.95 232.89 233.37 233.28 241"/><polygon class="cls-6" points="228.38 247.06 229.36 265.07 238.37 264.29 237.19 246.87 228.38 247.06"/><polygon class="cls-6" points="235.23 265.07 235.63 269.77 228.97 270.36 228.38 268.79 229.56 268.2 229.36 265.07 235.23 265.07"/><polygon class="cls-6" points="177.69 270.75 151.27 273.49 144.03 224.36 170.26 221.23 177.69 270.75"/><polygon class="cls-6" points="148.53 287.38 143.05 287.77 141.88 279.75 148.14 279.16 148.53 287.38"/><polygon class="cls-6" points="147.36 277.79 142.66 277.79 141.1 264.48 146.38 264.48 147.36 277.79"/><polygon class="cls-6" points="139.53 287.38 133.85 287.97 133.07 280.34 138.94 279.94 139.53 287.38"/><polygon class="cls-6" points="131.31 288.75 117.41 290.9 114.28 274.27 129.16 271.92 131.31 288.75"/><polygon class="cls-6" points="117.41 291.88 95.69 295.41 92.75 277.79 114.28 274.27 117.41 291.88"/><polygon class="cls-6" points="90.8 278.38 85.91 278.77 84.34 273.29 89.23 272.51 90.8 278.38"/><polygon class="cls-6" points="83.56 280.92 79.25 281.31 78.86 283.27 75.92 283.27 76.31 276.23 83.36 275.25 83.56 280.92"/><polygon class="cls-6" points="74.55 280.53 75.92 274.86 64.38 273.1 63.01 278.97 74.55 280.53"/><polygon class="cls-6" points="74.36 274.66 75.92 268.59 73.97 259.59 64.57 257.83 63.79 261.16 64.57 261.94 63.98 265.66 65.75 266.44 64.38 273.1 74.36 274.66"/><polygon class="cls-6" points="76.9 274.46 84.34 273.29 82.77 264.48 79.06 264.88 76.9 274.46"/><polygon class="cls-6" points="84.34 273.29 82.77 264.48 88.45 262.92 91.19 271.53 84.34 273.29"/><polygon class="cls-6" points="91.38 269.18 90.6 262.33 102.93 259.98 103.71 267.22 91.38 269.18"/><polygon class="cls-6" points="106.65 268.2 113.89 267.42 112.13 258.42 105.08 259.39 106.65 268.2"/><polygon class="cls-6" points="96.47 259.2 90.6 259.98 89.43 255.09 95.69 253.91 96.47 259.2"/><polygon class="cls-6" points="89.04 260.96 78.66 263.5 76.31 254.89 87.28 252.54 89.04 260.96"/><polygon class="cls-6" points="87.28 252.54 76.31 254.89 77.1 249.81 85.51 244.52 87.28 252.54"/><polygon class="cls-6" points="71.81 257.44 67.12 255.28 70.83 247.26 75.14 248.44 71.81 257.44"/><polygon class="cls-6" points="76.12 248.04 71.81 244.52 76.9 237.67 81.6 240.8 76.12 248.04"/><polygon class="cls-6" points="88.45 247.06 87.28 240.02 105.48 235.91 107.83 244.32 88.45 247.06"/><polygon class="cls-6" points="107.24 241.78 105.28 235.13 121.33 229.25 124.07 235.91 107.24 241.78"/><polygon class="cls-6" points="129.16 271.92 127 261.16 116.04 262.92 118 273.29 129.16 271.92"/><polygon class="cls-6" points="116.04 262.92 115.26 258.02 125.05 255.68 125.83 261.16 116.04 262.92"/><polygon class="cls-6" points="129.94 262.14 131.31 277.99 142.27 277.01 140.7 261.35 129.94 262.14"/><polygon class="cls-6" points="146.77 255.68 136.01 256.85 134.83 253.91 133.07 253.91 131.31 243.93 144.23 241.78 146.77 255.68"/><polygon class="cls-6" points="127.79 253.52 112.33 256.26 110.17 246.67 125.83 244.52 127.79 253.52"/><polygon class="cls-6" points="112.33 256.26 104.69 257.44 102.74 248.44 110.17 246.67 112.33 256.26"/><polygon class="cls-6" points="110.17 246.67 144.23 241.78 142.66 233.56 125.05 236.3 125.05 239.24 109.78 242.37 110.17 246.67"/><polygon class="cls-6" points="126.42 233.56 132.29 231.6 129.35 225.54 124.26 228.08 126.42 233.56"/><polygon class="cls-6" points="136.99 228.28 141.49 227.89 140.31 219.08 135.81 220.84 136.99 228.28"/><polygon class="cls-6" points="147.16 221.03 146.18 219.66 144.23 220.84 142.07 216.93 149.32 213.6 151.66 218.69 147.16 221.03"/><polygon class="cls-6" points="153.62 221.82 149.32 213.6 160.67 207.73 165.37 215.75 153.62 221.82"/><polygon class="cls-6" points="163.21 219.66 161.84 217.9 165.37 215.75 166.74 217.71 163.21 219.66"/><polygon class="cls-6" points="173.98 236.69 172.21 221.43 193.55 219.47 194.33 235.13 173.98 236.69"/><polygon class="cls-6" points="204.12 235.52 194.72 236.1 194.33 225.73 203.92 224.75 204.12 235.52"/><polygon class="cls-6" points="204.51 233.37 216.45 232.39 215.47 224.17 203.92 224.75 204.51 233.37"/><polygon class="cls-6" points="218.99 231.8 239.54 231.02 239.34 220.45 218.21 222.01 218.99 231.8"/><polygon class="cls-6" points="193.55 219.47 192.96 213.01 183.76 213.79 172.21 221.43 193.55 219.47"/><polygon class="cls-6" points="226.23 178.37 209.01 180.33 208.03 170.54 225.25 168.58 226.23 178.37"/><polygon class="cls-6" points="224.28 152.14 219.77 155.67 215.86 150.97 219.97 147.45 224.28 151.56 224.28 152.14"/><polygon class="cls-6" points="192.96 213.01 192.37 206.36 188.46 208.12 188.65 213.21 192.96 213.01"/><polygon class="cls-6" points="189.05 207.14 172.61 218.3 165.76 209.49 182.98 197.55 189.05 207.14"/><polygon class="cls-6" points="181.02 198.92 177.69 194.81 161.65 206.36 164.39 210.27 181.02 198.92"/><polygon class="cls-6" points="140.9 194.22 136.79 196.38 135.62 194.03 139.73 191.49 140.9 194.22"/><polygon class="cls-6" points="135.03 193.83 186.89 164.87 179.06 149.41 133.85 174.65 132.29 171.72 125.05 175.04 135.03 193.83"/><polygon class="cls-6" points="182.98 157.24 189.63 153.71 185.72 146.08 179.06 149.41 182.98 157.24"/><polygon class="cls-6" points="130.53 167.22 124.46 163.69 127.98 156.26 134.64 159 130.53 167.22"/><polygon class="cls-6" points="90.6 189.14 78.27 184.24 81.4 177 92.95 181.7 90.6 189.14"/><polygon class="cls-6" points="79.25 190.9 76.12 189.72 77.29 186 80.42 186.79 79.25 190.9"/><polygon class="cls-6" points="60.07 221.04 53.22 230.24 47.74 226.32 54.4 217.51 60.07 221.04"/><polygon class="cls-6" points="202.35 93.24 199.81 92.06 196.29 97.54 180.83 87.17 188.26 75.43 205.68 87.76 202.35 93.24"/><polyline class="cls-6" points="201.38 84.43 190.22 76.99 197.07 66.03 208.03 74.25 201.57 83.84"/><polygon class="cls-6" points="101.12 117.01 88.65 119.26 87.22 113.74 99.48 110.07 101.12 117.01"/><polygon class="cls-6" points="91.92 131.31 70.67 132.95 70.06 126.61 91.92 124.37 91.92 131.31"/><polygon class="cls-6" points="84.57 125.19 84.57 119.06 69.86 120.49 69.86 127.02 84.57 125.19"/><polygon class="cls-6" points="95.19 104.75 92.13 105.98 88.65 99.03 91.72 97.6 95.19 104.75"/><polygon class="cls-6" points="88.65 99.03 77.21 104.55 81.09 113.33 92.54 107.41 88.65 99.03"/><polygon class="cls-6" points="75.58 105.98 77.83 111.7 68.22 115.79 65.57 110.27 75.58 105.98"/><polygon class="cls-6" points="87.43 82.08 77.62 81.87 78.03 71.04 88.45 71.25 87.84 82.08 87.43 82.08"/><polygon class="cls-6" points="77.62 78.19 69.04 77.58 68.83 70.43 78.03 71.04 77.62 78.19"/><polygon class="cls-6" points="77.83 64.1 63.32 66.75 62.5 57.97 76.39 56.13 77.83 64.1"/><polygon class="cls-6" points="60.66 128.45 49.02 128.66 47.79 121.1 60.46 120.08 60.66 128.45"/><polygon class="cls-6" points="52.9 132.95 48.61 133.36 48.41 128.66 53.1 129.07 52.9 132.95"/><polygon class="cls-6" points="59.85 140.71 53.72 141.94 52.7 136.63 59.64 135.2 59.85 140.71"/><polygon class="cls-6" points="64.75 140.71 59.85 140.71 59.85 138.26 64.75 137.44 64.75 140.71"/><polygon class="cls-6" points="42.48 140.51 36.15 141.12 35.53 126.82 42.48 127.02 42.48 140.51"/><polygon class="cls-6" points="32.47 149.09 19.6 149.29 19.19 142.55 32.26 142.55 32.47 149.09"/><polygon class="cls-6" points="159.55 131.72 149.95 126.82 153.62 120.08 163.23 126 159.55 131.72"/><polygon class="cls-6" points="160.37 122.73 151.58 117.83 155.46 111.29 164.25 116.6 160.37 122.73"/><polygon class="cls-6" points="187.08 531.84 169.89 543.7 164.26 535.1 180.56 522.66 187.08 531.84"/><polygon class="cls-6" points="180.56 522.66 177.3 519.4 169 527.7 170.49 529.47 180.56 522.66"/><polygon class="cls-6" points="169 543.4 165.15 546.37 160.71 539.55 164.85 536.88 169 543.4"/><polygon class="cls-6" points="202.79 632.32 200.12 634.1 196.27 627.87 199.24 626.09 202.79 632.32"/><polygon class="cls-6" points="193.31 626.98 188.57 630.54 180.86 619.57 186.19 616.02 193.31 626.98"/><polygon class="cls-6" points="188.57 630.54 180.86 636.17 173.75 625.5 180.86 619.57 188.57 630.54"/><polygon class="cls-6" points="231.84 681.82 224.43 683.59 221.76 675 230.36 673.81 231.84 681.82"/><polygon class="cls-6" points="214.35 709.97 212.57 719.75 207.24 718.57 209.31 708.19 214.35 709.97"/></g><g id="NORTH_ARROW" data-name="NORTH ARROW"><line class="cls-7" x1="256.84" y1="60.89" x2="256.84" y2="34.89"/><line class="cls-7" x1="256.84" y1="34.89" x2="250.84" y2="43.89"/><text class="cls-8" transform="translate(239.9 71.21)">NOR</text><text class="cls-8" transform="translate(262.58 71.21)">TH</text><line class="cls-9" x1="294.28" y1="101.58" x2="288.69" y2="101.58"/><line class="cls-7" x1="294.28" y1="84.82" x2="288.69" y2="84.82"/><line class="cls-7" x1="294.28" y1="68.07" x2="288.69" y2="68.07"/><line class="cls-7" x1="294.28" y1="51.31" x2="288.69" y2="51.31"/><line class="cls-7" x1="294.28" y1="34.55" x2="288.69" y2="34.55"/><line class="cls-9" x1="294.28" y1="17.8" x2="288.69" y2="17.8"/><line class="cls-9" x1="293.77" y1="18.04" x2="293.77" y2="101.62"/><line class="cls-10" x1="292.02" y1="18.04" x2="292.02" y2="101.62"/><text class="cls-8" transform="translate(264.85 20.85)">75m</text></g><g id="Layer_9" data-name="Layer 9"><ellipse class="cls-11" cx="19.84" cy="722.11" rx="9.98" ry="10.06"/><text id="A" class="cls-12" transform="translate(16.63 725.09) scale(0.99 1)">O</text><ellipse class="cls-11" cx="203.82" cy="28.24" rx="9.98" ry="10.06"/><text id="A-2" data-name="A" class="cls-12" transform="translate(200.61 31.22) scale(0.99 1)">N</text><ellipse class="cls-11" cx="157.03" cy="722.11" rx="9.98" ry="10.06"/><text id="A-3" data-name="A" class="cls-12" transform="translate(153.82 725.09) scale(0.99 1)">M</text><ellipse class="cls-11" cx="186.89" cy="722.11" rx="9.98" ry="10.06"/><text id="A-4" data-name="A" class="cls-12" transform="translate(183.68 725.09) scale(0.99 1)">L</text><ellipse class="cls-11" cx="214.65" cy="722.11" rx="9.98" ry="10.06"/><text id="A-5" data-name="A" class="cls-12" transform="translate(211.44 725.09) scale(0.99 1)">K</text><ellipse class="cls-11" cx="228.87" cy="659.22" rx="9.98" ry="10.06"/><text id="A-6" data-name="A" class="cls-12" transform="translate(225.66 662.19) scale(0.99 1)">J</text><ellipse class="cls-11" cx="41.73" cy="365.57" rx="9.98" ry="10.06"/><text id="A-7" data-name="A" class="cls-12" transform="translate(40.52 368.55) scale(0.99 1)">I</text><ellipse class="cls-11" cx="213.8" cy="264.97" rx="9.98" ry="10.06"/><text id="A-8" data-name="A" class="cls-12" transform="translate(210.59 267.95) scale(0.99 1)">H</text><ellipse class="cls-11" cx="195.92" cy="273.1" rx="9.98" ry="10.06"/><text id="A-9" data-name="A" class="cls-12" transform="translate(192.7 276.07) scale(0.99 1)">G</text><ellipse class="cls-11" cx="160.82" cy="247.26" rx="9.98" ry="10.06"/><text id="A-10" data-name="A" class="cls-12" transform="translate(157.61 250.24) scale(0.99 1)">F</text><ellipse class="cls-11" cx="212.99" cy="137.44" rx="9.98" ry="10.06"/><text id="A-11" data-name="A" class="cls-12" transform="translate(209.78 140.42) scale(0.99 1)">E</text><ellipse class="cls-11" cx="194.97" cy="92.19" rx="9.98" ry="10.06"/><text id="A-12" data-name="A" class="cls-12" transform="translate(191.76 95.17) scale(0.99 1)">D</text><ellipse class="cls-11" cx="167.97" cy="89.46" rx="9.98" ry="10.06"/><text id="A-13" data-name="A" class="cls-12" transform="translate(164.76 92.44) scale(0.99 1)">C</text><ellipse class="cls-11" cx="114.94" cy="86.48" rx="9.98" ry="10.06"/><text id="A-14" data-name="A" class="cls-12" transform="translate(111.73 89.46) scale(0.99 1)">B</text><ellipse class="cls-11" cx="92.75" cy="57.01" rx="9.98" ry="10.06"/><text id="A-15" data-name="A" class="cls-12" transform="translate(89.54 59.98) scale(0.99 1)">A</text></g></svg>